<mxfile host="app.diagrams.net" modified="2020-10-18T13:29:36.922Z" agent="5.0 (Windows)" etag="n2OKdqFa82kfALFu2Oie" version="13.8.0" type="github">
  <diagram id="GdSKlvUOt4ArjZEkX5bh" name="Page-1">
    <mxGraphModel dx="1117" dy="1790" grid="1" gridSize="10" guides="1" tooltips="1" connect="1" arrows="1" fold="1" page="1" pageScale="1" pageWidth="850" pageHeight="1100" math="0" shadow="0">
      <root>
        <mxCell id="0" />
        <mxCell id="1" parent="0" />
        <mxCell id="67QUjv8XnrozzHBc8mDq-11" style="edgeStyle=orthogonalEdgeStyle;rounded=0;orthogonalLoop=1;jettySize=auto;html=1;exitX=0.5;exitY=1;exitDx=0;exitDy=0;entryX=0.5;entryY=0;entryDx=0;entryDy=0;" edge="1" parent="1" source="67QUjv8XnrozzHBc8mDq-1" target="67QUjv8XnrozzHBc8mDq-2">
          <mxGeometry relative="1" as="geometry" />
        </mxCell>
        <mxCell id="67QUjv8XnrozzHBc8mDq-1" value="uni" style="rounded=0;whiteSpace=wrap;html=1;" vertex="1" parent="1">
          <mxGeometry x="290" y="40" width="120" height="60" as="geometry" />
        </mxCell>
        <mxCell id="67QUjv8XnrozzHBc8mDq-12" style="edgeStyle=orthogonalEdgeStyle;rounded=0;orthogonalLoop=1;jettySize=auto;html=1;exitX=0.5;exitY=1;exitDx=0;exitDy=0;" edge="1" parent="1" source="67QUjv8XnrozzHBc8mDq-2" target="67QUjv8XnrozzHBc8mDq-3">
          <mxGeometry relative="1" as="geometry" />
        </mxCell>
        <mxCell id="67QUjv8XnrozzHBc8mDq-2" value="has a" style="rhombus;whiteSpace=wrap;html=1;" vertex="1" parent="1">
          <mxGeometry x="310" y="130" width="80" height="80" as="geometry" />
        </mxCell>
        <mxCell id="67QUjv8XnrozzHBc8mDq-13" style="edgeStyle=orthogonalEdgeStyle;rounded=0;orthogonalLoop=1;jettySize=auto;html=1;exitX=0.5;exitY=1;exitDx=0;exitDy=0;" edge="1" parent="1" source="67QUjv8XnrozzHBc8mDq-3" target="67QUjv8XnrozzHBc8mDq-4">
          <mxGeometry relative="1" as="geometry" />
        </mxCell>
        <mxCell id="67QUjv8XnrozzHBc8mDq-3" value="&lt;span class=&quot;phrase-token&quot;&gt;Faculty&lt;/span&gt;" style="rounded=0;whiteSpace=wrap;html=1;" vertex="1" parent="1">
          <mxGeometry x="290" y="240" width="120" height="60" as="geometry" />
        </mxCell>
        <mxCell id="67QUjv8XnrozzHBc8mDq-14" style="edgeStyle=orthogonalEdgeStyle;rounded=0;orthogonalLoop=1;jettySize=auto;html=1;exitX=0.5;exitY=1;exitDx=0;exitDy=0;entryX=0.5;entryY=0;entryDx=0;entryDy=0;" edge="1" parent="1" source="67QUjv8XnrozzHBc8mDq-4" target="67QUjv8XnrozzHBc8mDq-5">
          <mxGeometry relative="1" as="geometry" />
        </mxCell>
        <mxCell id="67QUjv8XnrozzHBc8mDq-4" value="has a" style="rhombus;whiteSpace=wrap;html=1;" vertex="1" parent="1">
          <mxGeometry x="310" y="360" width="80" height="80" as="geometry" />
        </mxCell>
        <mxCell id="67QUjv8XnrozzHBc8mDq-35" style="edgeStyle=orthogonalEdgeStyle;rounded=0;orthogonalLoop=1;jettySize=auto;html=1;exitX=1;exitY=0.5;exitDx=0;exitDy=0;" edge="1" parent="1" source="67QUjv8XnrozzHBc8mDq-5" target="67QUjv8XnrozzHBc8mDq-34">
          <mxGeometry relative="1" as="geometry" />
        </mxCell>
        <mxCell id="67QUjv8XnrozzHBc8mDq-5" value="school" style="rounded=0;whiteSpace=wrap;html=1;" vertex="1" parent="1">
          <mxGeometry x="290" y="480" width="120" height="60" as="geometry" />
        </mxCell>
        <mxCell id="67QUjv8XnrozzHBc8mDq-7" value="course" style="rounded=0;whiteSpace=wrap;html=1;" vertex="1" parent="1">
          <mxGeometry x="290" y="900" width="120" height="60" as="geometry" />
        </mxCell>
        <mxCell id="67QUjv8XnrozzHBc8mDq-17" style="edgeStyle=orthogonalEdgeStyle;rounded=0;orthogonalLoop=1;jettySize=auto;html=1;exitX=0.5;exitY=1;exitDx=0;exitDy=0;entryX=0.5;entryY=0.088;entryDx=0;entryDy=0;entryPerimeter=0;" edge="1" parent="1" source="67QUjv8XnrozzHBc8mDq-8" target="67QUjv8XnrozzHBc8mDq-9">
          <mxGeometry relative="1" as="geometry" />
        </mxCell>
        <mxCell id="67QUjv8XnrozzHBc8mDq-8" value="program" style="rounded=0;whiteSpace=wrap;html=1;" vertex="1" parent="1">
          <mxGeometry x="290" y="710" width="120" height="60" as="geometry" />
        </mxCell>
        <mxCell id="67QUjv8XnrozzHBc8mDq-18" style="edgeStyle=orthogonalEdgeStyle;rounded=0;orthogonalLoop=1;jettySize=auto;html=1;exitX=0.5;exitY=1;exitDx=0;exitDy=0;" edge="1" parent="1" source="67QUjv8XnrozzHBc8mDq-9" target="67QUjv8XnrozzHBc8mDq-7">
          <mxGeometry relative="1" as="geometry" />
        </mxCell>
        <mxCell id="67QUjv8XnrozzHBc8mDq-9" value="has a" style="rhombus;whiteSpace=wrap;html=1;" vertex="1" parent="1">
          <mxGeometry x="310" y="800" width="80" height="80" as="geometry" />
        </mxCell>
        <mxCell id="67QUjv8XnrozzHBc8mDq-25" style="edgeStyle=orthogonalEdgeStyle;rounded=0;orthogonalLoop=1;jettySize=auto;html=1;exitX=0;exitY=0.5;exitDx=0;exitDy=0;entryX=0.75;entryY=0;entryDx=0;entryDy=0;" edge="1" parent="1" source="67QUjv8XnrozzHBc8mDq-21" target="67QUjv8XnrozzHBc8mDq-1">
          <mxGeometry relative="1" as="geometry" />
        </mxCell>
        <mxCell id="67QUjv8XnrozzHBc8mDq-21" value="name" style="ellipse;whiteSpace=wrap;html=1;" vertex="1" parent="1">
          <mxGeometry x="450" y="-10" width="90" height="50" as="geometry" />
        </mxCell>
        <mxCell id="67QUjv8XnrozzHBc8mDq-24" style="edgeStyle=orthogonalEdgeStyle;rounded=0;orthogonalLoop=1;jettySize=auto;html=1;exitX=0;exitY=0.5;exitDx=0;exitDy=0;" edge="1" parent="1" source="67QUjv8XnrozzHBc8mDq-22" target="67QUjv8XnrozzHBc8mDq-1">
          <mxGeometry relative="1" as="geometry" />
        </mxCell>
        <mxCell id="67QUjv8XnrozzHBc8mDq-22" value="city" style="ellipse;whiteSpace=wrap;html=1;" vertex="1" parent="1">
          <mxGeometry x="460" y="45" width="80" height="50" as="geometry" />
        </mxCell>
        <mxCell id="67QUjv8XnrozzHBc8mDq-26" style="edgeStyle=orthogonalEdgeStyle;rounded=0;orthogonalLoop=1;jettySize=auto;html=1;exitX=0.5;exitY=1;exitDx=0;exitDy=0;" edge="1" parent="1" source="67QUjv8XnrozzHBc8mDq-23" target="67QUjv8XnrozzHBc8mDq-1">
          <mxGeometry relative="1" as="geometry" />
        </mxCell>
        <mxCell id="67QUjv8XnrozzHBc8mDq-23" value="id" style="ellipse;whiteSpace=wrap;html=1;" vertex="1" parent="1">
          <mxGeometry x="312.5" y="-40" width="75" height="30" as="geometry" />
        </mxCell>
        <mxCell id="67QUjv8XnrozzHBc8mDq-29" style="edgeStyle=orthogonalEdgeStyle;rounded=0;orthogonalLoop=1;jettySize=auto;html=1;exitX=0;exitY=0.5;exitDx=0;exitDy=0;entryX=1;entryY=0.5;entryDx=0;entryDy=0;" edge="1" parent="1" source="67QUjv8XnrozzHBc8mDq-27" target="67QUjv8XnrozzHBc8mDq-3">
          <mxGeometry relative="1" as="geometry" />
        </mxCell>
        <mxCell id="67QUjv8XnrozzHBc8mDq-27" value="name" style="ellipse;whiteSpace=wrap;html=1;" vertex="1" parent="1">
          <mxGeometry x="480" y="240" width="90" height="50" as="geometry" />
        </mxCell>
        <mxCell id="67QUjv8XnrozzHBc8mDq-28" value="" style="rounded=0;whiteSpace=wrap;html=1;fillColor=none;" vertex="1" parent="1">
          <mxGeometry x="305" y="250" width="90" height="40" as="geometry" />
        </mxCell>
        <mxCell id="67QUjv8XnrozzHBc8mDq-30" value="" style="rhombus;whiteSpace=wrap;html=1;fillColor=none;" vertex="1" parent="1">
          <mxGeometry x="320" y="145" width="60" height="50" as="geometry" />
        </mxCell>
        <mxCell id="67QUjv8XnrozzHBc8mDq-31" value="" style="endArrow=none;html=1;exitX=0.5;exitY=0;exitDx=0;exitDy=0;" edge="1" parent="1" source="67QUjv8XnrozzHBc8mDq-3">
          <mxGeometry width="50" height="50" relative="1" as="geometry">
            <mxPoint x="300" y="260" as="sourcePoint" />
            <mxPoint x="350" y="210" as="targetPoint" />
            <Array as="points">
              <mxPoint x="340" y="230" />
            </Array>
          </mxGeometry>
        </mxCell>
        <mxCell id="67QUjv8XnrozzHBc8mDq-32" value="" style="rounded=0;whiteSpace=wrap;html=1;fillColor=none;" vertex="1" parent="1">
          <mxGeometry x="310" y="500" width="80" height="30" as="geometry" />
        </mxCell>
        <mxCell id="67QUjv8XnrozzHBc8mDq-33" value="" style="rhombus;whiteSpace=wrap;html=1;fillColor=none;" vertex="1" parent="1">
          <mxGeometry x="325" y="375" width="50" height="50" as="geometry" />
        </mxCell>
        <mxCell id="67QUjv8XnrozzHBc8mDq-34" value="name" style="ellipse;whiteSpace=wrap;html=1;" vertex="1" parent="1">
          <mxGeometry x="470" y="485" width="85" height="60" as="geometry" />
        </mxCell>
        <mxCell id="67QUjv8XnrozzHBc8mDq-40" style="edgeStyle=orthogonalEdgeStyle;rounded=0;orthogonalLoop=1;jettySize=auto;html=1;exitX=0;exitY=0.5;exitDx=0;exitDy=0;entryX=1;entryY=0.75;entryDx=0;entryDy=0;" edge="1" parent="1" source="67QUjv8XnrozzHBc8mDq-37" target="67QUjv8XnrozzHBc8mDq-8">
          <mxGeometry relative="1" as="geometry" />
        </mxCell>
        <mxCell id="67QUjv8XnrozzHBc8mDq-37" value="&lt;u&gt;id&lt;/u&gt;" style="ellipse;whiteSpace=wrap;html=1;" vertex="1" parent="1">
          <mxGeometry x="480" y="760" width="80" height="50" as="geometry" />
        </mxCell>
        <mxCell id="67QUjv8XnrozzHBc8mDq-39" style="edgeStyle=orthogonalEdgeStyle;rounded=0;orthogonalLoop=1;jettySize=auto;html=1;exitX=0;exitY=0.5;exitDx=0;exitDy=0;" edge="1" parent="1" source="67QUjv8XnrozzHBc8mDq-38" target="67QUjv8XnrozzHBc8mDq-8">
          <mxGeometry relative="1" as="geometry" />
        </mxCell>
        <mxCell id="67QUjv8XnrozzHBc8mDq-38" value="name" style="ellipse;whiteSpace=wrap;html=1;" vertex="1" parent="1">
          <mxGeometry x="470" y="690" width="85" height="60" as="geometry" />
        </mxCell>
        <mxCell id="67QUjv8XnrozzHBc8mDq-43" style="edgeStyle=orthogonalEdgeStyle;rounded=0;orthogonalLoop=1;jettySize=auto;html=1;exitX=0;exitY=0.5;exitDx=0;exitDy=0;entryX=1;entryY=0.25;entryDx=0;entryDy=0;" edge="1" parent="1" source="67QUjv8XnrozzHBc8mDq-42" target="67QUjv8XnrozzHBc8mDq-7">
          <mxGeometry relative="1" as="geometry" />
        </mxCell>
        <mxCell id="67QUjv8XnrozzHBc8mDq-42" value="name" style="ellipse;whiteSpace=wrap;html=1;fillColor=#ffffff;" vertex="1" parent="1">
          <mxGeometry x="435" y="880" width="120" height="80" as="geometry" />
        </mxCell>
        <mxCell id="67QUjv8XnrozzHBc8mDq-52" value="" style="rounded=0;whiteSpace=wrap;html=1;fillColor=none;" vertex="1" parent="1">
          <mxGeometry x="305" y="910" width="90" height="40" as="geometry" />
        </mxCell>
        <mxCell id="67QUjv8XnrozzHBc8mDq-57" value="" style="ellipse;whiteSpace=wrap;html=1;fillColor=none;" vertex="1" parent="1">
          <mxGeometry x="50" y="930" width="120" height="80" as="geometry" />
        </mxCell>
        <mxCell id="67QUjv8XnrozzHBc8mDq-60" value="sub course" style="rounded=0;whiteSpace=wrap;html=1;" vertex="1" parent="1">
          <mxGeometry x="275" y="1140" width="120" height="60" as="geometry" />
        </mxCell>
        <mxCell id="67QUjv8XnrozzHBc8mDq-62" style="edgeStyle=orthogonalEdgeStyle;rounded=0;orthogonalLoop=1;jettySize=auto;html=1;exitX=0;exitY=0.5;exitDx=0;exitDy=0;entryX=0;entryY=1;entryDx=0;entryDy=0;" edge="1" parent="1" source="67QUjv8XnrozzHBc8mDq-61" target="67QUjv8XnrozzHBc8mDq-7">
          <mxGeometry relative="1" as="geometry" />
        </mxCell>
        <mxCell id="67QUjv8XnrozzHBc8mDq-63" style="edgeStyle=orthogonalEdgeStyle;rounded=0;orthogonalLoop=1;jettySize=auto;html=1;exitX=1;exitY=0.5;exitDx=0;exitDy=0;" edge="1" parent="1" source="67QUjv8XnrozzHBc8mDq-61" target="67QUjv8XnrozzHBc8mDq-60">
          <mxGeometry relative="1" as="geometry" />
        </mxCell>
        <mxCell id="67QUjv8XnrozzHBc8mDq-61" value="is a " style="triangle;whiteSpace=wrap;html=1;fillColor=#ffffff;" vertex="1" parent="1">
          <mxGeometry x="320" y="1000" width="60" height="80" as="geometry" />
        </mxCell>
        <mxCell id="67QUjv8XnrozzHBc8mDq-64" value="season" style="ellipse;whiteSpace=wrap;html=1;fillColor=#ffffff;" vertex="1" parent="1">
          <mxGeometry x="480" y="1120" width="120" height="80" as="geometry" />
        </mxCell>
      </root>
    </mxGraphModel>
  </diagram>
</mxfile>
